<svg width="87" height="87" viewBox="0 0 87 87" fill="#7a7a7a" xmlns="http://www.w3.org/2000/svg">
<path d="M43.5 0C28.2552 0 15.8182 11.8963 15.8182 26.4783C15.8182 35.4771 20.6032 43.4395 27.8044 48.2283C11.571 54.288 0 69.4184 0 87H7.90909C7.90909 70.3641 20.528 56.4592 37.0739 53.5466L39.5455 60.5217H47.4545L49.9261 53.5466C66.472 56.4592 79.0909 70.3641 79.0909 87H87C87 69.4184 75.429 54.288 59.1956 48.2283C66.3929 43.4395 71.1818 35.4771 71.1818 26.4783C71.1818 11.8963 58.7448 0 43.5 0ZM43.5 7.56522C54.466 7.56522 63.2727 15.9891 63.2727 26.4783C63.2727 36.9674 54.466 45.3913 43.5 45.3913C32.534 45.3913 23.7273 36.9674 23.7273 26.4783C23.7273 15.9891 32.534 7.56522 43.5 7.56522ZM39.5455 64.3043L35.5909 87H51.4091L47.4545 64.3043H39.5455Z" />
</svg>
