<svg width="87" height="77" viewBox="0 0 87 77" fill="#7a7a7a" xmlns="http://www.w3.org/2000/svg">
<path d="M61.625 0C55.1254 0 49.2348 1.078 44.631 3.10887C40.0309 5.13975 36.25 8.44754 36.25 12.8333V25.6667C36.25 26.0805 36.4059 26.4816 36.4784 26.8698C32.8499 26.0537 29.1188 25.6494 25.375 25.6667C18.8754 25.6667 12.9847 26.7447 8.381 28.7755C3.78087 30.8064 0 34.1142 0 38.5V64.1667C0 68.5525 3.78088 71.8602 8.38463 73.8911C12.9848 75.922 18.8754 77 25.375 77C31.8746 77 37.7652 75.922 42.369 73.8911C46.9655 71.8602 50.75 68.5525 50.75 64.1667V62.8641C54.2961 63.7126 57.9516 64.1504 61.625 64.1667C68.1246 64.1667 74.0152 63.0887 78.619 61.0578C83.2155 59.0269 87 55.7191 87 51.3333V12.8333C87 8.44754 83.2191 5.13975 78.6154 3.10887C74.0189 1.078 68.1283 0 61.625 0ZM61.625 6.41667C67.1459 6.41667 72.0614 7.469 75.3311 8.92238C78.6045 10.3758 79.75 11.9061 79.75 12.8333C79.75 13.7637 78.6045 15.2909 75.3311 16.7443C72.065 18.1977 67.1459 19.25 61.625 19.25C56.1041 19.25 51.1886 18.1977 47.9189 16.7443C44.6455 15.2909 43.5 13.7605 43.5 12.8333C43.5 11.9029 44.6455 10.3758 47.9189 8.92238C51.185 7.469 56.1041 6.41667 61.625 6.41667ZM43.5 21.9578C43.8806 22.1439 44.2359 22.3845 44.6346 22.5578C49.2347 24.5887 55.1254 25.6667 61.625 25.6667C68.1246 25.6667 74.0152 24.5887 78.619 22.5578C79.0141 22.3845 79.3694 22.1439 79.75 21.9578V25.6667C79.75 26.5971 78.6045 28.1242 75.3311 29.5776C72.0614 31.031 67.1459 32.0833 61.625 32.0833C56.1041 32.0833 51.1886 31.031 47.9189 29.5776C44.6455 28.1242 43.5 26.5939 43.5 25.6667V21.9578ZM25.375 32.0833C30.8959 32.0833 35.8114 33.1357 39.0811 34.589C42.3545 36.0424 43.5 37.5728 43.5 38.5C43.5 39.4304 42.3545 40.9576 39.0811 42.411C35.8114 43.8643 30.8959 44.9167 25.375 44.9167C19.8541 44.9167 14.9386 43.8643 11.6689 42.411C8.3955 40.9576 7.25 39.4272 7.25 38.5C7.25 37.5696 8.3955 36.0424 11.6689 34.589C14.935 33.1357 19.8541 32.0833 25.375 32.0833ZM79.75 34.7912V38.5C79.75 39.4304 78.6045 40.9576 75.3311 42.411C72.0614 43.8643 67.1459 44.9167 61.625 44.9167C57.9323 44.9344 54.2604 44.4263 50.75 43.412V38.5C50.75 38.0861 50.5941 37.6851 50.5216 37.2969C53.8929 38.0733 57.6303 38.5 61.625 38.5C68.1246 38.5 74.0152 37.422 78.619 35.3911C79.0141 35.2179 79.3694 34.9772 79.75 34.7912V34.7912ZM7.25 47.6245C7.63062 47.8106 7.98588 48.0512 8.38463 48.2245C12.9848 50.2553 18.8754 51.3333 25.375 51.3333C31.8746 51.3333 37.7652 50.2553 42.369 48.2245C42.7641 48.0512 43.1194 47.8106 43.5 47.6245V51.3333C43.5 52.2637 42.3545 53.7909 39.0811 55.2443C35.8114 56.6977 30.8959 57.75 25.375 57.75C19.8541 57.75 14.9386 56.6977 11.6689 55.2443C8.3955 53.7909 7.25 52.2605 7.25 51.3333V47.6245ZM79.75 47.6245V51.3333C79.75 52.2637 78.6045 53.7909 75.3311 55.2443C72.0614 56.6977 67.1459 57.75 61.625 57.75C57.5034 57.75 53.7805 57.2367 50.75 56.3447V50.1302C54.0777 50.9066 57.7027 51.3333 61.625 51.3333C68.1246 51.3333 74.0152 50.2553 78.619 48.2245C79.0141 48.0512 79.3694 47.8106 79.75 47.6245V47.6245ZM7.25 60.4578C7.63062 60.6439 7.98588 60.8845 8.38463 61.0578C12.9848 63.0887 18.8754 64.1667 25.375 64.1667C31.8746 64.1667 37.7652 63.0887 42.369 61.0578C42.7641 60.8845 43.1194 60.6439 43.5 60.4578V64.1667C43.5 65.0971 42.3545 66.6242 39.0811 68.0776C35.8114 69.531 30.8959 70.5833 25.375 70.5833C19.8541 70.5833 14.9386 69.531 11.6689 68.0776C8.3955 66.6242 7.25 65.0939 7.25 64.1667V60.4578Z"/>
</svg>
