<svg width="91" height="80" viewBox="0 0 91 80" fill="#7a7a7a" xmlns="http://www.w3.org/2000/svg">
<path d="M88.9376 41.3241L48.8126 1.32411C47.1228 -0.363894 43.8772 -0.363894 42.1875 1.32411L2.06247 41.3241C1.48492 41.8985 1.10582 42.611 0.971265 43.3751C0.83671 44.1392 0.952498 44.922 1.30455 45.6281C2.01788 47.0721 3.61397 48.0001 5.37501 48.0001H14.2917V76.0001C14.2917 77.061 14.7614 78.0784 15.5975 78.8285C16.4336 79.5787 17.5676 80.0001 18.75 80.0001H32.125C33.3074 80.0001 34.4414 79.5787 35.2775 78.8285C36.1136 78.0784 36.5833 77.061 36.5833 76.0001V60.0001H54.4167V76.0001C54.4167 77.061 54.8864 78.0784 55.7225 78.8285C56.5586 79.5787 57.6926 80.0001 58.875 80.0001H72.25C73.4324 80.0001 74.5664 79.5787 75.4025 78.8285C76.2386 78.0784 76.7083 77.061 76.7083 76.0001V48.0001H85.625C86.4884 48.0034 87.3343 47.7812 88.0594 47.3607C88.7845 46.9401 89.3576 46.3394 89.7088 45.6317C90.0599 44.924 90.174 44.1399 90.0371 43.375C89.9001 42.6101 89.5181 41.8975 88.9376 41.3241V41.3241Z" />
</svg>