<svg width="95" height="89" viewBox="0 0 95 89" fill="#7a7a7a" xmlns="http://www.w3.org/2000/svg">
<path d="M50.35 40.0499C48.45 39.6049 46.55 38.7149 45.125 37.3799C43.7 36.9349 43.225 35.5999 43.225 34.7099C43.225 33.8199 43.7 32.4849 44.65 32.0399C46.075 31.1499 47.5 30.2599 48.925 30.7049C51.775 30.7049 54.15 32.0399 55.575 33.8199L59.85 28.4799C58.425 27.1449 57 26.2549 55.575 25.3649C54.15 24.4749 52.25 24.0299 50.35 24.0299V17.7999H44.65V24.0299C42.275 24.4749 39.9 25.8099 38 27.5899C36.1 29.8149 34.675 32.4849 35.15 35.1549C35.15 37.8249 36.1 40.4949 38 42.2749C40.375 44.4999 43.7 45.8349 46.55 47.1699C47.975 47.6149 49.875 48.5049 51.3 49.3949C52.25 50.2849 52.725 51.6199 52.725 52.9549C52.725 54.2899 52.25 55.6249 51.3 56.9599C49.875 58.2949 47.975 58.7399 46.55 58.7399C44.65 58.7399 42.275 58.2949 40.85 56.9599C39.425 56.0699 38 54.7349 37.05 53.3999L32.3 58.2949C33.725 60.0749 35.15 61.4099 37.05 62.7449C39.425 64.0799 42.275 65.4149 45.125 65.4149V71.1999H50.35V64.5249C53.2 64.0799 55.575 62.7449 57.475 60.9649C59.85 58.7399 61.275 55.1799 61.275 52.0649C61.275 49.3949 60.325 46.2799 57.95 44.4999C55.575 42.2749 53.2 40.9399 50.35 40.0499V40.0499ZM47.5 8.8999C26.6 8.8999 9.5 24.9199 9.5 44.4999C9.5 64.0799 26.6 80.0999 47.5 80.0999C68.4 80.0999 85.5 64.0799 85.5 44.4999C85.5 24.9199 68.4 8.8999 47.5 8.8999ZM47.5 75.2049C29.45 75.2049 14.725 61.4099 14.725 44.4999C14.725 27.5899 29.45 13.7949 47.5 13.7949C65.55 13.7949 80.275 27.5899 80.275 44.4999C80.275 61.4099 65.55 75.2049 47.5 75.2049V75.2049Z"/>
</svg>
