<svg width="14" height="16" viewBox="0 0 14 16" fill="#7a7a7a" xmlns="http://www.w3.org/2000/svg">
<path d="M0 1.5C0 1.10218 0.158035 0.720644 0.43934 0.43934C0.720644 0.158035 1.10218 0 1.5 0H8.5C8.89782 0 9.27936 0.158035 9.56066 0.43934C9.84196 0.720644 10 1.10218 10 1.5V3.293L13.268 6.561C13.7366 7.02969 13.9999 7.66526 14 8.328V15.5C14 15.6326 13.9473 15.7598 13.8536 15.8536C13.7598 15.9473 13.6326 16 13.5 16C13.3674 16 13.2402 15.9473 13.1464 15.8536C13.0527 15.7598 13 15.6326 13 15.5V8.328C12.9996 7.93031 12.8414 7.54903 12.56 7.268L10 4.708V7.793L10.854 8.646C10.9478 8.73989 11.0004 8.86717 11.0003 8.99985C11.0002 9.13254 10.9474 9.25975 10.8535 9.3535C10.807 9.39992 10.7518 9.43673 10.6911 9.46183C10.6304 9.48693 10.5653 9.49982 10.4996 9.49978C10.367 9.49968 10.2398 9.44689 10.146 9.353L7.146 6.353C6.724 5.931 6.489 5.949 6.386 5.975C6.213 6.017 6.06 6.155 5.846 6.361C5.746 6.457 5.704 6.551 5.724 6.691C5.75 6.866 5.887 7.179 6.354 7.646L7.567 8.859L7.853 9.146C7.89958 9.19244 7.93655 9.24761 7.96177 9.30835C7.98699 9.3691 7.99999 9.43423 8 9.5C8 10.274 8.006 11.053 8.22 11.641C8.322 11.922 8.461 12.127 8.644 12.264C8.823 12.398 9.087 12.5 9.5 12.5C9.63261 12.5 9.75979 12.5527 9.85355 12.6464C9.94732 12.7402 10 12.8674 10 13V14.5C10 14.8978 9.84196 15.2794 9.56066 15.5607C9.27936 15.842 8.89782 16 8.5 16H1.5C1.10218 16 0.720644 15.842 0.43934 15.5607C0.158035 15.2794 0 14.8978 0 14.5V1.5ZM5 5.5C4.58007 5.49994 4.16689 5.60566 3.7986 5.80741C3.43031 6.00915 3.11876 6.30042 2.89273 6.65432C2.66669 7.00822 2.53345 7.41336 2.50528 7.83235C2.47712 8.25133 2.55496 8.67066 2.7316 9.05163C2.90824 9.4326 3.17801 9.76293 3.51599 10.0121C3.85397 10.2614 4.24929 10.4214 4.66545 10.4776C5.08161 10.5337 5.5052 10.4841 5.89714 10.3334C6.28908 10.1826 6.63673 9.93555 6.908 9.615L6.858 9.565L5.646 8.353C5.113 7.82 4.806 7.319 4.735 6.837C4.70053 6.618 4.72084 6.39388 4.79413 6.18465C4.86742 5.97543 4.9914 5.78761 5.155 5.638L5.189 5.605L5.283 5.515C5.18902 5.50472 5.09454 5.49971 5 5.5V5.5ZM7 14.5V15H8V14.5C8 14.3674 8.05268 14.2402 8.14645 14.1464C8.24021 14.0527 8.36739 14 8.5 14H9V13.46C8.65654 13.4078 8.33069 13.2737 8.05 13.069C7.74549 13.1648 7.47947 13.3552 7.29063 13.6125C7.10179 13.8699 6.99998 14.1808 7 14.5V14.5ZM1 3H1.5C1.89782 3 2.27936 2.84196 2.56066 2.56066C2.84196 2.27936 3 1.89782 3 1.5V1H2V1.5C2 1.63261 1.94732 1.75979 1.85355 1.85355C1.75979 1.94732 1.63261 2 1.5 2H1V3ZM7 1.5C7 1.89782 7.15804 2.27936 7.43934 2.56066C7.72064 2.84196 8.10218 3 8.5 3H9V2H8.5C8.36739 2 8.24021 1.94732 8.14645 1.85355C8.05268 1.75979 8 1.63261 8 1.5V1H7V1.5ZM3 14.5C3 14.1022 2.84196 13.7206 2.56066 13.4393C2.27936 13.158 1.89782 13 1.5 13H1V14H1.5C1.63261 14 1.75979 14.0527 1.85355 14.1464C1.94732 14.2402 2 14.3674 2 14.5V15H3V14.5Z" />
</svg>
