<svg width="81" height="77" viewBox="0 0 81 77" fill="#7a7a7a" xmlns="http://www.w3.org/2000/svg">
<path d="M59.9062 6.44238C61.8304 6.44216 63.6829 7.13633 65.0894 8.38461C66.4959 9.63289 67.3514 11.3422 67.4831 13.1671L67.5 13.6611V63.3839C67.4994 65.2125 66.7688 66.9727 65.4557 68.3091C64.1427 69.6454 62.3451 70.4582 60.426 70.5834L59.9062 70.5994H21.0938C19.1696 70.5997 17.3171 69.9055 15.9106 68.6572C14.5041 67.4089 13.6486 65.6996 13.5169 63.8748L13.5 63.3839V13.6611C13.4998 11.832 14.23 10.0709 15.5431 8.73392C16.8562 7.39691 18.6543 6.58362 20.574 6.45842L21.0938 6.44238H59.9062ZM26.1562 22.4584C25.4849 22.4584 24.8411 22.7119 24.3664 23.1632C23.8917 23.6144 23.625 24.2265 23.625 24.8646C23.625 25.5028 23.8917 26.1148 24.3664 26.5661C24.8411 27.0174 25.4849 27.2709 26.1562 27.2709H54.8438C55.5151 27.2709 56.1589 27.0174 56.6336 26.5661C57.1083 26.1148 57.375 25.5028 57.375 24.8646C57.375 24.2265 57.1083 23.6144 56.6336 23.1632C56.1589 22.7119 55.5151 22.4584 54.8438 22.4584H26.1562ZM23.625 37.698C23.625 39.0262 24.759 40.1042 26.1562 40.1042H54.8438C55.5151 40.1042 56.1589 39.8507 56.6336 39.3994C57.1083 38.9482 57.375 38.3361 57.375 37.698C57.375 37.0598 57.1083 36.4478 56.6336 35.9965C56.1589 35.5452 55.5151 35.2917 54.8438 35.2917H26.1562C25.4849 35.2917 24.8411 35.5452 24.3664 35.9965C23.8917 36.4478 23.625 37.0598 23.625 37.698V37.698ZM26.1562 48.1251C25.4849 48.1251 24.8411 48.3786 24.3664 48.8298C23.8917 49.2811 23.625 49.8931 23.625 50.5313C23.625 51.1695 23.8917 51.7815 24.3664 52.2328C24.8411 52.684 25.4849 52.9376 26.1562 52.9376H54.8438C55.5151 52.9376 56.1589 52.684 56.6336 52.2328C57.1083 51.7815 57.375 51.1695 57.375 50.5313C57.375 49.8931 57.1083 49.2811 56.6336 48.8298C56.1589 48.3786 55.5151 48.1251 54.8438 48.1251H26.1562Z" />
</svg>
