<svg width="80" height="87" viewBox="0 0 80 87" fill="#7a7a7a" xmlns="http://www.w3.org/2000/svg">
<path d="M40 0C24.58 0 12 12.437 12 27.6818C12 37.2123 16.92 45.675 24.376 50.6696C10.108 56.72 0 70.7191 0 87H8C8 69.4814 22.28 55.3636 40 55.3636C57.72 55.3636 72 69.4814 72 87H80C80 70.7191 69.892 56.724 55.624 50.6656C59.4294 48.1259 62.5473 44.703 64.7048 40.6962C66.8623 36.6894 67.9937 32.221 68 27.6818C68 12.437 55.42 0 40 0ZM40 7.90909C51.092 7.90909 60 16.7159 60 27.6818C60 38.6478 51.092 47.4545 40 47.4545C28.908 47.4545 20 38.6478 20 27.6818C20 16.7159 28.908 7.90909 40 7.90909Z"/>
</svg>
