<svg width="43" height="32" viewBox="0 0 43 32" fill="none" xmlns="http://www.w3.org/2000/svg">
  <path d="M7.81818 0H43V24H7.81818V0ZM25.4091 6C26.9642 6 28.4557 6.63214 29.5553 7.75736C30.655 8.88258 31.2727 10.4087 31.2727 12C31.2727 13.5913 30.655 15.1174 29.5553 16.2426C28.4557 17.3679 26.9642 18 25.4091 18C23.854 18 22.3625 17.3679 21.2629 16.2426C20.1632 15.1174 19.5455 13.5913 19.5455 12C19.5455 10.4087 20.1632 8.88258 21.2629 7.75736C22.3625 6.63214 23.854 6 25.4091 6ZM15.6364 4C15.6364 5.06087 15.2245 6.07828 14.4914 6.82843C13.7583 7.57857 12.764 8 11.7273 8V16C12.764 16 13.7583 16.4214 14.4914 17.1716C15.2245 17.9217 15.6364 18.9391 15.6364 20H35.1818C35.1818 18.9391 35.5937 17.9217 36.3268 17.1716C37.0599 16.4214 38.0542 16 39.0909 16V8C38.0542 8 37.0599 7.57857 36.3268 6.82843C35.5937 6.07828 35.1818 5.06087 35.1818 4H15.6364ZM0 8H3.90909V28H35.1818V32H0V8Z" fill="#41C0DC"/>
</svg>
