<svg width="38" height="35" viewBox="0 0 38 35" fill="none" xmlns="http://www.w3.org/2000/svg">
  <path d="M24.0455 17.5H26.5682V22.435L30.6718 24.9025L29.4105 27.1775L24.0455 23.9575V17.5ZM37.5 22.75C37.5 25.9989 36.2597 29.1147 34.0518 31.4121C31.844 33.7094 28.8496 35 25.7273 35C21.035 35 16.9818 32.13 15.0814 28H3.86364C1.99682 28 0.5 26.425 0.5 24.5V3.5C0.5 1.5575 1.99682 0 3.86364 0H30.7727C31.6648 0 32.5204 0.368749 33.1512 1.02513C33.782 1.6815 34.1364 2.57174 34.1364 3.5V14.175C36.2218 16.38 37.5 19.4075 37.5 22.75ZM25.7273 14C23.497 14 21.3582 14.9219 19.7811 16.5628C18.2041 18.2038 17.3182 20.4294 17.3182 22.75C17.3182 25.0706 18.2041 27.2962 19.7811 28.9372C21.3582 30.5781 23.497 31.5 25.7273 31.5C27.9575 31.5 30.0964 30.5781 31.6734 28.9372C33.2504 27.2962 34.1364 25.0706 34.1364 22.75C34.1364 20.4294 33.2504 18.2038 31.6734 16.5628C30.0964 14.9219 27.9575 14 25.7273 14ZM30.7727 10.5V5.25H3.86364V10.5H30.7727Z" fill="#41C0DC"/>
</svg>
