<svg width="32" height="33" viewBox="0 0 32 33" fill="none" xmlns="http://www.w3.org/2000/svg">
  <path d="M16 0.5C18.0554 0.5 20.0267 1.34285 21.4801 2.84315C22.9335 4.34344 23.75 6.37827 23.75 8.5C23.75 10.6217 22.9335 12.6566 21.4801 14.1569C20.0267 15.6571 18.0554 16.5 16 16.5C13.9446 16.5 11.9733 15.6571 10.5199 14.1569C9.06651 12.6566 8.25 10.6217 8.25 8.5C8.25 6.37827 9.06651 4.34344 10.5199 2.84315C11.9733 1.34285 13.9446 0.5 16 0.5ZM16 20.5C24.5637 20.5 31.5 24.08 31.5 28.5V32.5H0.5V28.5C0.5 24.08 7.43625 20.5 16 20.5Z" fill="#41C0DC"/>
</svg>
