<svg width="36" height="32" viewBox="0 0 36 32" fill="none" xmlns="http://www.w3.org/2000/svg">
  <path d="M31.2317 0.5H3.91463C2.03659 0.5 0.5 2.03278 0.5 3.94444V24.6111C0.5 26.5228 2.03659 28.0556 3.91463 28.0556H19.4341C19.3317 27.4872 19.2805 26.9189 19.2805 26.3333C19.2805 20.6328 23.8732 16 29.5244 16C31.3341 16 33.0927 16.4822 34.6463 17.395V3.94444C34.6463 2.03278 33.1268 0.5 31.2317 0.5ZM31.2317 12.5556H3.91463V7.38889H31.2317M27.3902 31.5L22.6951 26.3333L24.6756 24.3356L27.3902 27.0739L33.5195 20.8911L35.5 23.3194L27.3902 31.5Z" fill="#41C0DC"/>
</svg>
