<svg width="73" height="62" viewBox="0 0 73 62" fill="none" xmlns="http://www.w3.org/2000/svg">
<path d="M69.35 0H3.65C1.63452 0 0 2.3137 0 5.16667V56.8333C0 59.6863 1.63452 62 3.65 62H69.35C71.3655 62 73 59.6863 73 56.8333V5.16667C73 2.3137 71.3655 0 69.35 0ZM5.475 54.25V43.9167C9.50711 43.9167 12.775 48.5424 12.775 54.25H5.475ZM5.475 18.0833V7.75H12.775C12.775 13.4576 9.50711 18.0833 5.475 18.0833ZM36.5 46.5C31.4596 46.5 27.375 39.5589 27.375 31C27.375 22.4395 31.4607 15.5 36.5 15.5C41.5393 15.5 45.625 22.4395 45.625 31C45.625 39.5621 41.5381 46.5 36.5 46.5ZM67.525 54.25H60.225C60.225 48.5424 63.4929 43.9167 67.525 43.9167V54.25ZM67.525 18.0833C63.4929 18.0833 60.225 13.4576 60.225 7.75H67.525V18.0833Z" fill="black"/>
</svg>
