<svg width="20" height="21" viewBox="0 0 20 21" fill="none" xmlns="http://www.w3.org/2000/svg">
<path d="M19 5.00001H14V3.33001C13.9765 2.68982 13.7002 2.08506 13.2316 1.6483C12.7629 1.21153 12.1402 0.978398 11.5 1.00001H8.5C7.85975 0.978398 7.23706 1.21153 6.76843 1.6483C6.2998 2.08506 6.02346 2.68982 6 3.33001V5.00001H1C0.734784 5.00001 0.48043 5.10536 0.292893 5.2929C0.105357 5.48044 0 5.73479 0 6.00001C0 6.26522 0.105357 6.51958 0.292893 6.70711C0.48043 6.89465 0.734784 7.00001 1 7.00001H2V18C2 18.7957 2.31607 19.5587 2.87868 20.1213C3.44129 20.6839 4.20435 21 5 21H15C15.7956 21 16.5587 20.6839 17.1213 20.1213C17.6839 19.5587 18 18.7957 18 18V7.00001H19C19.2652 7.00001 19.5196 6.89465 19.7071 6.70711C19.8946 6.51958 20 6.26522 20 6.00001C20 5.73479 19.8946 5.48044 19.7071 5.2929C19.5196 5.10536 19.2652 5.00001 19 5.00001ZM8 15C8 15.2652 7.89464 15.5196 7.70711 15.7071C7.51957 15.8946 7.26522 16 7 16C6.73478 16 6.48043 15.8946 6.29289 15.7071C6.10536 15.5196 6 15.2652 6 15V11C6 10.7348 6.10536 10.4804 6.29289 10.2929C6.48043 10.1054 6.73478 10 7 10C7.26522 10 7.51957 10.1054 7.70711 10.2929C7.89464 10.4804 8 10.7348 8 11V15ZM8 3.33001C8 3.17001 8.21 3.00001 8.5 3.00001H11.5C11.79 3.00001 12 3.17001 12 3.33001V5.00001H8V3.33001ZM14 15C14 15.2652 13.8946 15.5196 13.7071 15.7071C13.5196 15.8946 13.2652 16 13 16C12.7348 16 12.4804 15.8946 12.2929 15.7071C12.1054 15.5196 12 15.2652 12 15V11C12 10.7348 12.1054 10.4804 12.2929 10.2929C12.4804 10.1054 12.7348 10 13 10C13.2652 10 13.5196 10.1054 13.7071 10.2929C13.8946 10.4804 14 10.7348 14 11V15Z" fill="#5E47D2"/>
</svg>
